<svg width="113" height="48" viewBox="0 0 113 48" fill="none" xmlns="http://www.w3.org/2000/svg">
<rect x="7" y="7" width="49" height="34" fill="white"/>
<path d="M26.64 21.656C27.3227 21.656 27.856 21.848 28.24 22.232C28.6453 22.616 28.848 23.1493 28.848 23.832C28.848 24.0027 28.8373 24.184 28.816 24.376C28.7947 24.5467 28.752 24.696 28.688 24.824C28.4107 24.7813 28.1013 24.7493 27.76 24.728C27.4187 24.6853 27.0133 24.664 26.544 24.664C25.584 24.664 24.624 24.7493 23.664 24.92C22.704 25.0907 21.7867 25.2293 20.912 25.336C19.952 27.5973 19.1627 29.72 18.544 31.704C17.9253 33.688 17.4453 35.6507 17.104 37.592C16.3787 37.4213 15.7387 37.112 15.184 36.664C14.6293 36.216 14.1067 35.5867 13.616 34.776C13.7653 34.4347 13.9467 34.0293 14.16 33.56C14.3733 33.0693 14.6293 32.4613 14.928 31.736C15.2267 30.9893 15.5787 30.0933 15.984 29.048C16.4107 27.9813 16.912 26.712 17.488 25.24C16.592 24.9413 16.0053 24.4187 15.728 23.672C15.8347 23.5653 16.1333 23.448 16.624 23.32C17.1147 23.1707 17.712 23.0107 18.416 22.84C18.736 22.008 19.0133 21.272 19.248 20.632C19.4827 19.9707 19.696 19.352 19.888 18.776C20.08 18.1787 20.2507 17.6027 20.4 17.048C20.5707 16.472 20.72 15.864 20.848 15.224H20.688C19.8773 15.224 19.216 15.032 18.704 14.648C18.2133 14.264 17.968 13.7627 17.968 13.144C17.968 12.9733 17.9893 12.7707 18.032 12.536C18.096 12.3013 18.1707 12.0987 18.256 11.928C18.6613 11.992 19.056 12.0347 19.44 12.056C19.8453 12.0773 20.368 12.088 21.008 12.088C22.352 12.088 23.6107 12.056 24.784 11.992C25.9573 11.9067 27.0133 11.8213 27.952 11.736C28.912 11.6507 29.7333 11.576 30.416 11.512C31.0987 11.4267 31.6213 11.384 31.984 11.384C32.4747 11.384 32.912 11.64 33.296 12.152C33.68 12.664 33.9787 13.3893 34.192 14.328C33.5093 14.264 32.9547 14.2213 32.528 14.2C32.1227 14.1787 31.76 14.168 31.44 14.168C30.352 14.168 29.3493 14.2213 28.432 14.328C27.536 14.4133 26.6827 14.52 25.872 14.648C25.744 14.84 25.5947 15.0853 25.424 15.384C25.2747 15.6827 25.072 16.1093 24.816 16.664C24.56 17.1973 24.2293 17.9013 23.824 18.776C23.44 19.6507 22.9493 20.76 22.352 22.104C23.184 21.976 23.9733 21.8693 24.72 21.784C25.488 21.6987 26.128 21.656 26.64 21.656ZM30.4798 32.856C30.4798 32.664 30.4904 32.4293 30.5118 32.152C30.5544 31.8533 30.6184 31.4693 30.7038 31C30.7891 30.5093 30.8958 29.9227 31.0238 29.24C31.1731 28.5573 31.3544 27.736 31.5677 26.776C31.6104 26.5627 31.7064 26.2213 31.8558 25.752C32.0051 25.2827 32.1971 24.792 32.4318 24.28C32.6878 23.7467 32.9864 23.2347 33.3278 22.744C33.6904 22.2533 34.1171 21.8907 34.6078 21.656C34.9704 21.7413 35.4504 21.9653 36.0478 22.328C36.6451 22.6693 37.1571 23.1493 37.5838 23.768C37.0931 24.3227 36.6771 24.8773 36.3358 25.432C36.0158 25.9867 35.7171 26.5627 35.4398 27.16C35.1838 27.7573 34.9384 28.376 34.7038 29.016C34.4904 29.656 34.2451 30.328 33.9678 31.032C33.7331 31.6293 33.5198 32.248 33.3278 32.888C33.1358 33.5067 33.0291 34.0507 33.0078 34.52C33.0078 34.904 32.9971 35.1707 32.9758 35.32C32.9758 35.4907 32.9224 35.576 32.8158 35.576C32.7304 35.576 32.5598 35.5227 32.3038 35.416C32.0478 35.3093 31.7811 35.1493 31.5038 34.936C31.2478 34.7013 31.0131 34.4133 30.7998 34.072C30.5864 33.7307 30.4798 33.3253 30.4798 32.856ZM36.5918 18.968C36.5918 18.84 36.6238 18.648 36.6878 18.392C36.5811 18.2853 36.4851 18.1253 36.3998 17.912C36.3358 17.6987 36.3038 17.5067 36.3038 17.336C36.3038 17.144 36.3251 16.888 36.3678 16.568C36.4318 16.2267 36.5064 15.864 36.5918 15.48C36.6771 15.096 36.7838 14.7013 36.9118 14.296C37.0398 13.8693 37.1678 13.4853 37.2958 13.144C37.5518 13.144 37.8611 13.2187 38.2238 13.368C38.6078 13.496 38.9918 13.6773 39.3758 13.912C39.7598 14.1253 40.1118 14.3707 40.4318 14.648C40.7518 14.904 40.9971 15.1493 41.1678 15.384C40.9331 15.6187 40.6238 15.9493 40.2398 16.376C39.8558 16.7813 39.4824 17.2187 39.1198 17.688C38.7571 18.136 38.4264 18.5627 38.1278 18.968C37.8291 19.3733 37.6371 19.6613 37.5518 19.832C37.2958 19.7893 37.0718 19.6827 36.8798 19.512C36.6878 19.32 36.5918 19.1387 36.5918 18.968ZM39.6795 22.744C39.5728 22.616 39.4768 22.3493 39.3915 21.944C39.3062 21.5173 39.2635 21.1547 39.2635 20.856C39.8182 20.8987 40.3515 20.9413 40.8635 20.984C41.3755 21.0053 41.8448 21.0267 42.2715 21.048C42.5915 20.408 42.9328 19.7787 43.2955 19.16C43.6795 18.52 44.0422 17.944 44.3835 17.432C44.7462 16.8987 45.0768 16.4507 45.3755 16.088C45.6955 15.7253 45.9408 15.4907 46.1115 15.384C46.3248 15.384 46.5915 15.4267 46.9115 15.512C47.2528 15.576 47.5942 15.672 47.9355 15.8C48.2768 15.9067 48.5862 16.024 48.8635 16.152C49.1408 16.28 49.3328 16.408 49.4395 16.536C48.7995 17.3467 48.2448 18.104 47.7755 18.808C47.3275 19.4907 46.8368 20.28 46.3035 21.176C46.7302 21.176 47.1568 21.1653 47.5835 21.144C48.0315 21.1227 48.4795 21.0907 48.9275 21.048C49.0342 21.1547 49.1195 21.2933 49.1835 21.464C49.2475 21.6133 49.2795 21.7733 49.2795 21.944C48.2342 22.328 46.9648 22.5413 45.4715 22.584C44.9382 23.608 44.4582 24.632 44.0315 25.656C43.6262 26.6587 43.2742 27.6293 42.9755 28.568C42.6982 29.5067 42.4742 30.392 42.3035 31.224C42.1542 32.056 42.0795 32.8027 42.0795 33.464C42.0795 34.4027 42.4315 34.9253 43.1355 35.032C43.7755 34.9467 44.3835 34.7867 44.9595 34.552C45.5355 34.3173 46.0475 34.0187 46.4955 33.656C46.6235 33.848 46.6982 34.008 46.7195 34.136C46.5915 34.328 46.3675 34.552 46.0475 34.808C45.7488 35.064 45.4182 35.3093 45.0555 35.544C44.6928 35.8 44.3408 36.0133 43.9995 36.184C43.6582 36.3547 43.4022 36.4507 43.2315 36.472C42.6982 36.4507 42.1648 36.3333 41.6315 36.12C41.0982 35.9067 40.6075 35.64 40.1595 35.32C39.7328 35 39.3808 34.648 39.1035 34.264C38.8262 33.8587 38.6875 33.464 38.6875 33.08C38.6875 32.568 38.7515 31.928 38.8795 31.16C39.0288 30.3707 39.2315 29.5173 39.4875 28.6C39.7435 27.6827 40.0422 26.7227 40.3835 25.72C40.7248 24.7173 41.0982 23.7253 41.5035 22.744H39.6795Z" fill="black"/>
<path d="M71.2578 32H62.3047C62.2266 32 62.1875 31.9609 62.1875 31.8828L62.2109 29.2695L68.0938 18.0312H62.5273C62.457 18.0312 62.4219 18 62.4219 17.9375V15.418C62.4219 15.3398 62.457 15.3008 62.5273 15.3008H71.2109C71.2891 15.3008 71.3281 15.3398 71.3281 15.418V18.0078L65.4805 29.1875H71.2578C71.3203 29.1875 71.3516 29.2305 71.3516 29.3164L71.375 31.8828C71.375 31.9609 71.3359 32 71.2578 32ZM77.3281 32.2344C76.4766 32.2344 75.6914 32.0156 74.9727 31.5781C74.2617 31.1406 73.6875 30.5586 73.25 29.832C72.8203 29.0977 72.6055 28.293 72.6055 27.418L72.6289 19.8125C72.6289 18.9219 72.8438 18.1211 73.2734 17.4102C73.6953 16.6914 74.2656 16.1172 74.9844 15.6875C75.7031 15.25 76.4844 15.0312 77.3281 15.0312C78.2031 15.0312 78.9883 15.2461 79.6836 15.6758C80.3867 16.1055 80.9492 16.6836 81.3711 17.4102C81.8008 18.1289 82.0156 18.9297 82.0156 19.8125L82.0391 27.418C82.0391 28.293 81.8281 29.0938 81.4062 29.8203C80.9766 30.5547 80.4062 31.1406 79.6953 31.5781C78.9844 32.0156 78.1953 32.2344 77.3281 32.2344ZM77.3281 29.3398C77.8125 29.3398 78.2344 29.1445 78.5938 28.7539C78.9531 28.3555 79.1328 27.9102 79.1328 27.418L79.1094 19.8125C79.1094 19.2812 78.9414 18.832 78.6055 18.4648C78.2695 18.0977 77.8438 17.9141 77.3281 17.9141C76.8359 17.9141 76.4141 18.0938 76.0625 18.4531C75.7109 18.8125 75.5352 19.2656 75.5352 19.8125V27.418C75.5352 27.9414 75.7109 28.3945 76.0625 28.7773C76.4141 29.1523 76.8359 29.3398 77.3281 29.3398ZM86.4688 32H84.0664C83.9414 32 83.8789 31.9453 83.8789 31.8359L83.8555 15.4883C83.8555 15.3633 83.918 15.3008 84.043 15.3008H86.2109L90.2656 24.7578L90.1484 15.4883C90.1484 15.3633 90.2188 15.3008 90.3594 15.3008H92.7383C92.832 15.3008 92.8789 15.3633 92.8789 15.4883L92.9023 31.8594C92.9023 31.9531 92.8633 32 92.7852 32H90.6758L86.5156 23.1641L86.6914 31.8125C86.6914 31.9375 86.6172 32 86.4688 32ZM102.84 32H95.082C95.0195 32 94.9883 31.9609 94.9883 31.8828L95.0117 15.3945C95.0117 15.332 95.043 15.3008 95.1055 15.3008H102.816C102.879 15.3008 102.91 15.3398 102.91 15.418V18.1016C102.91 18.1641 102.879 18.1953 102.816 18.1953H97.8945V21.9453H102.816C102.879 21.9453 102.91 21.9766 102.91 22.0391L102.934 24.7578C102.934 24.8203 102.902 24.8516 102.84 24.8516H97.8945V29.0469H102.84C102.902 29.0469 102.934 29.0859 102.934 29.1641V31.9062C102.934 31.9688 102.902 32 102.84 32Z" fill="white"/>
<rect x="1" y="1" width="111" height="46" stroke="white" stroke-width="2"/>
</svg>
